<svg width="759" height="397" viewBox="0 0 759 397" fill="none" xmlns="http://www.w3.org/2000/svg">
<path d="M380.184 26.6162C375.33 34.1664 362.102 35.6909 355.833 35.514C355.74 35.5114 355.697 35.6239 355.766 35.6858C358.818 38.4171 365.289 42.3432 371.978 42.3432C380.894 42.3432 384.97 40.2919 389.757 35.5054C394.543 30.7189 396.595 20.4622 393.176 12.9405C389.827 5.57414 384.949 3.45456 381.751 2.08558C381.672 2.05187 381.59 2.12236 381.615 2.20419C383.198 7.33206 385.041 19.0599 380.184 26.6162Z" stroke="black" stroke-width="3"/>
<path d="M191.459 97.7297C196.93 93.3991 207.734 81.866 209.922 73.1135M191.459 97.7297C196.93 93.3991 207.734 81.866 209.922 73.1135" stroke="black" stroke-width="4" stroke-linecap="round"/>
<path d="M228.384 97.7297C222.914 93.3991 212.11 81.866 209.922 73.1135M228.384 97.7297C222.914 93.3991 212.11 81.866 209.922 73.1135" stroke="black" stroke-width="4" stroke-linecap="round"/>
<path d="M191.459 129.184C196.93 124.853 207.734 113.32 209.922 104.568M191.459 129.184C196.93 124.853 207.734 113.32 209.922 104.568" stroke="black" stroke-width="4" stroke-linecap="round"/>
<path d="M228.384 129.184C222.914 124.853 212.11 113.32 209.922 104.568M228.384 129.184C222.914 124.853 212.11 113.32 209.922 104.568" stroke="black" stroke-width="4" stroke-linecap="round"/>
<path d="M527.881 130.551C533.351 126.221 544.155 114.688 546.343 105.935M527.881 130.551C533.351 126.221 544.155 114.688 546.343 105.935" stroke="black" stroke-width="4" stroke-linecap="round"/>
<path d="M564.805 130.551C559.335 126.221 548.531 114.688 546.343 105.935M564.805 130.551C559.335 126.221 548.531 114.688 546.343 105.935" stroke="black" stroke-width="4" stroke-linecap="round"/>
<path d="M261.205 164.223C264.606 160.946 271.322 152.218 272.682 145.595M261.205 164.223C264.606 160.946 271.322 152.218 272.682 145.595" stroke="black" stroke-width="4" stroke-linecap="round"/>
<path d="M284.158 164.223C280.758 160.946 274.042 152.218 272.682 145.595M284.158 164.223C280.758 160.946 274.042 152.218 272.682 145.595" stroke="black" stroke-width="4" stroke-linecap="round"/>
<path d="M471.811 143.71C475.211 140.432 481.927 131.705 483.287 125.081M471.811 143.71C475.211 140.432 481.927 131.705 483.287 125.081" stroke="black" stroke-width="4" stroke-linecap="round"/>
<path d="M494.764 143.71C491.363 140.432 484.647 131.705 483.287 125.081M494.764 143.71C491.363 140.432 484.647 131.705 483.287 125.081" stroke="black" stroke-width="4" stroke-linecap="round"/>
<path d="M190.092 160.638C195.967 156.307 207.571 144.774 209.922 136.022M190.092 160.638C195.967 156.307 207.571 144.774 209.922 136.022" stroke="black" stroke-width="4" stroke-linecap="round"/>
<path d="M229.751 160.638C223.876 156.307 212.272 144.774 209.922 136.022M229.751 160.638C223.876 156.307 212.272 144.774 209.922 136.022" stroke="black" stroke-width="4" stroke-linecap="round"/>
<path d="M526.513 162.005C532.389 157.675 543.993 146.142 546.343 137.389M526.513 162.005C532.389 157.675 543.993 146.142 546.343 137.389" stroke="black" stroke-width="4" stroke-linecap="round"/>
<path d="M566.173 162.005C560.297 157.675 548.693 146.142 546.343 137.389M566.173 162.005C560.297 157.675 548.693 146.142 546.343 137.389" stroke="black" stroke-width="4" stroke-linecap="round"/>
<path d="M259.838 188.285C263.49 185.008 270.703 176.28 272.164 169.656M259.838 188.285C263.49 185.008 270.703 176.28 272.164 169.656" stroke="black" stroke-width="4" stroke-linecap="round"/>
<path d="M284.491 188.285C280.839 185.008 273.625 176.28 272.164 169.656M284.491 188.285C280.839 185.008 273.625 176.28 272.164 169.656" stroke="black" stroke-width="4" stroke-linecap="round"/>
<path d="M470.443 167.771C474.096 164.494 481.309 155.766 482.77 149.143M470.443 167.771C474.096 164.494 481.309 155.766 482.77 149.143" stroke="black" stroke-width="4" stroke-linecap="round"/>
<path d="M495.096 167.771C491.444 164.494 484.231 155.766 482.77 149.143M495.096 167.771C491.444 164.494 484.231 155.766 482.77 149.143" stroke="black" stroke-width="4" stroke-linecap="round"/>
<path d="M188.724 192.092C195.208 187.761 208.012 176.228 210.605 167.476M188.724 192.092C195.208 187.761 208.012 176.228 210.605 167.476" stroke="black" stroke-width="4" stroke-linecap="round"/>
<path d="M232.487 192.092C226.003 187.761 213.199 176.228 210.605 167.476M232.487 192.092C226.003 187.761 213.199 176.228 210.605 167.476" stroke="black" stroke-width="4" stroke-linecap="round"/>
<path d="M525.146 193.459C531.629 189.129 544.434 177.596 547.027 168.843M525.146 193.459C531.629 189.129 544.434 177.596 547.027 168.843" stroke="black" stroke-width="4" stroke-linecap="round"/>
<path d="M568.908 193.459C562.425 189.129 549.62 177.596 547.027 168.843M568.908 193.459C562.425 189.129 549.62 177.596 547.027 168.843" stroke="black" stroke-width="4" stroke-linecap="round"/>
<path d="M258.47 210.72C262.5 207.443 270.46 198.715 272.072 192.092M258.47 210.72C262.5 207.443 270.46 198.715 272.072 192.092" stroke="black" stroke-width="4" stroke-linecap="round"/>
<path d="M285.674 210.72C281.644 207.443 273.684 198.715 272.072 192.092M285.674 210.72C281.644 207.443 273.684 198.715 272.072 192.092" stroke="black" stroke-width="4" stroke-linecap="round"/>
<path d="M469.076 190.207C473.106 186.93 481.065 178.202 482.677 171.578M469.076 190.207C473.106 186.93 481.065 178.202 482.677 171.578" stroke="black" stroke-width="4" stroke-linecap="round"/>
<path d="M496.279 190.207C492.249 186.93 484.289 178.202 482.677 171.578M496.279 190.207C492.249 186.93 484.289 178.202 482.677 171.578" stroke="black" stroke-width="4" stroke-linecap="round"/>
<path d="M184.622 224.913C192.118 220.342 206.923 208.168 209.922 198.93M184.622 224.913C192.118 220.342 206.923 208.168 209.922 198.93" stroke="black" stroke-width="4" stroke-linecap="round"/>
<path d="M235.222 224.913C227.725 220.342 212.92 208.168 209.922 198.93M235.222 224.913C227.725 220.342 212.92 208.168 209.922 198.93" stroke="black" stroke-width="4" stroke-linecap="round"/>
<path d="M521.043 226.281C528.54 221.71 543.345 209.536 546.343 200.297M521.043 226.281C528.54 221.71 543.345 209.536 546.343 200.297" stroke="black" stroke-width="4" stroke-linecap="round"/>
<path d="M571.643 226.281C564.147 221.71 549.342 209.536 546.343 200.297M571.643 226.281C564.147 221.71 549.342 209.536 546.343 200.297" stroke="black" stroke-width="4" stroke-linecap="round"/>
<path d="M257.103 235.817C261.763 232.358 270.966 223.145 272.83 216.154M257.103 235.817C261.763 232.358 270.966 223.145 272.83 216.154" stroke="black" stroke-width="4" stroke-linecap="round"/>
<path d="M288.557 235.817C283.897 232.358 274.694 223.145 272.83 216.154M288.557 235.817C283.897 232.358 274.694 223.145 272.83 216.154" stroke="black" stroke-width="4" stroke-linecap="round"/>
<path d="M467.708 215.303C472.368 211.844 481.571 202.631 483.435 195.64M467.708 215.303C472.368 211.844 481.571 202.631 483.435 195.64" stroke="black" stroke-width="4" stroke-linecap="round"/>
<path d="M499.162 215.303C494.502 211.844 485.299 202.631 483.435 195.64M499.162 215.303C494.502 211.844 485.299 202.631 483.435 195.64" stroke="black" stroke-width="4" stroke-linecap="round"/>
<path d="M463.605 236.372C469.278 232.912 480.482 223.7 482.751 216.708M463.605 236.372C469.278 232.912 480.482 223.7 482.751 216.708" stroke="black" stroke-width="4" stroke-linecap="round"/>
<path d="M501.897 236.372C496.224 232.912 485.021 223.7 482.751 216.708M501.897 236.372C496.224 232.912 485.021 223.7 482.751 216.708" stroke="black" stroke-width="4" stroke-linecap="round"/>
<path d="M406.046 252.316H383.551V203.783C385.793 207.015 388.501 211.1 390.764 214.981C392.587 218.106 395.665 225.359 398.821 233.326C401.468 240.009 404.121 247.066 406.046 252.316Z" fill="black" stroke="black" stroke-width="4"/>
<path d="M349.413 253.632C356.251 233.575 368.559 196.194 379.5 196.195C390.44 196.195 403.66 234.031 410.954 253.632" stroke="black" stroke-width="4"/>
<path d="M298.813 253.632C298.813 253.632 315.908 217.392 338.473 178.416C361.038 139.441 384.286 106.619 384.286 106.619" stroke="black" stroke-width="4" stroke-linecap="round"/>
<path d="M375.116 102.163C375.116 102.163 392.492 128.5 421.211 176.365C449.93 224.23 464.008 253.963 464.008 253.963" stroke="black" stroke-width="4" stroke-linecap="round"/>
<path d="M381.551 131.919L381.551 183.887" stroke="black" stroke-width="4" stroke-linecap="round"/>
<path d="M310.438 255L340.15 201.949" stroke="black" stroke-width="3" stroke-linecap="round"/>
<path d="M418.476 201.665L448.188 254.716" stroke="black" stroke-width="3" stroke-linecap="round"/>
<path d="M482.751 253.632L482.751 127.816" stroke="black" stroke-width="4" stroke-linecap="round"/>
<path d="M547.027 253.632V107.303" stroke="black" stroke-width="4" stroke-linecap="round"/>
<path d="M272.146 253.632L272.146 152.432" stroke="black" stroke-width="4" stroke-linecap="round"/>
<path d="M209.238 253.632L209.238 75.8487" stroke="black" stroke-width="4" stroke-linecap="round"/>
<path d="M202.4 255H554.549M164.108 267.308H192.827M209.238 267.308H269.411M298.13 267.308H369.927M391.808 267.308H462.922M480.7 267.308H530.616M548.395 267.308H590.789" stroke="black" stroke-width="3" stroke-linecap="round"/>
<path d="M147.216 349.688C143.52 349.688 140.088 349.04 136.92 347.744C133.752 346.448 130.968 344.648 128.568 342.344C126.168 340.04 124.296 337.328 122.952 334.208C121.656 331.04 121.008 327.608 121.008 323.912C121.008 320.216 121.656 316.808 122.952 313.688C124.296 310.52 126.12 307.784 128.424 305.48C130.776 303.176 133.512 301.4 136.632 300.152C139.8 298.856 143.184 298.208 146.784 298.208C149.328 298.208 151.824 298.568 154.272 299.288C156.768 300.008 159.024 301.016 161.04 302.312C163.056 303.608 164.688 305.072 165.936 306.704L162.192 310.52C160.848 309.128 159.336 307.928 157.656 306.92C155.976 305.912 154.2 305.12 152.328 304.544C150.504 303.968 148.68 303.68 146.856 303.68C144.024 303.68 141.384 304.184 138.936 305.192C136.536 306.2 134.424 307.616 132.6 309.44C130.776 311.216 129.36 313.352 128.352 315.848C127.344 318.296 126.84 320.984 126.84 323.912C126.84 326.744 127.344 329.408 128.352 331.904C129.408 334.352 130.872 336.512 132.744 338.384C134.664 340.208 136.872 341.624 139.368 342.632C141.864 343.64 144.552 344.144 147.432 344.144C149.688 344.144 151.8 343.808 153.768 343.136C155.784 342.464 157.536 341.528 159.024 340.328C160.512 339.08 161.664 337.64 162.48 336.008C163.296 334.376 163.704 332.624 163.704 330.752V328.232L164.856 329.672H147.144V324.128H169.32C169.368 324.512 169.416 324.968 169.464 325.496C169.512 325.976 169.536 326.48 169.536 327.008C169.584 327.488 169.608 327.944 169.608 328.376C169.608 331.496 169.032 334.376 167.88 337.016C166.728 339.608 165.12 341.864 163.056 343.784C161.04 345.656 158.688 347.12 156 348.176C153.312 349.184 150.384 349.688 147.216 349.688ZM205.689 349.688C202.137 349.688 198.849 349.064 195.825 347.816C192.849 346.52 190.233 344.72 187.977 342.416C185.769 340.112 184.041 337.4 182.793 334.28C181.593 331.112 180.993 327.656 180.993 323.912C180.993 320.168 181.593 316.736 182.793 313.616C184.041 310.448 185.769 307.712 187.977 305.408C190.233 303.056 192.849 301.256 195.825 300.008C198.849 298.712 202.137 298.064 205.689 298.064C209.289 298.064 212.577 298.712 215.553 300.008C218.577 301.256 221.193 303.056 223.401 305.408C225.657 307.712 227.385 310.448 228.585 313.616C229.833 316.736 230.457 320.168 230.457 323.912C230.457 327.608 229.833 331.04 228.585 334.208C227.385 337.328 225.657 340.064 223.401 342.416C221.193 344.72 218.577 346.52 215.553 347.816C212.577 349.064 209.289 349.688 205.689 349.688ZM205.689 344.144C208.425 344.144 210.945 343.664 213.249 342.704C215.601 341.696 217.617 340.28 219.297 338.456C220.977 336.632 222.273 334.496 223.185 332.048C224.145 329.552 224.625 326.84 224.625 323.912C224.625 320.936 224.145 318.224 223.185 315.776C222.273 313.28 220.977 311.12 219.297 309.296C217.617 307.472 215.601 306.056 213.249 305.048C210.945 304.04 208.425 303.536 205.689 303.536C202.953 303.536 200.409 304.04 198.057 305.048C195.753 306.056 193.761 307.472 192.081 309.296C190.401 311.12 189.105 313.28 188.193 315.776C187.281 318.224 186.825 320.936 186.825 323.912C186.825 326.84 187.281 329.552 188.193 332.048C189.105 334.496 190.401 336.632 192.081 338.456C193.761 340.28 195.753 341.696 198.057 342.704C200.409 343.664 202.953 344.144 205.689 344.144ZM292.472 349.688C288.872 349.688 285.56 349.064 282.536 347.816C279.512 346.52 276.896 344.72 274.688 342.416C272.48 340.064 270.752 337.304 269.504 334.136C268.304 330.968 267.704 327.512 267.704 323.768C267.704 320.072 268.304 316.688 269.504 313.616C270.752 310.496 272.504 307.784 274.76 305.48C277.016 303.128 279.632 301.328 282.608 300.08C285.584 298.832 288.848 298.208 292.4 298.208C294.752 298.208 297.08 298.592 299.384 299.36C301.688 300.08 303.8 301.088 305.72 302.384C307.688 303.68 309.296 305.168 310.544 306.848L306.656 310.88C305.456 309.44 304.064 308.192 302.48 307.136C300.944 306.08 299.312 305.264 297.584 304.688C295.856 304.112 294.128 303.824 292.4 303.824C289.712 303.824 287.192 304.328 284.84 305.336C282.536 306.296 280.544 307.664 278.864 309.44C277.184 311.216 275.864 313.328 274.904 315.776C273.992 318.224 273.536 320.888 273.536 323.768C273.536 326.744 273.992 329.48 274.904 331.976C275.864 334.472 277.208 336.632 278.936 338.456C280.712 340.232 282.776 341.624 285.128 342.632C287.528 343.592 290.192 344.072 293.12 344.072C294.848 344.072 296.576 343.832 298.304 343.352C300.032 342.824 301.616 342.104 303.056 341.192C304.496 340.28 305.72 339.248 306.728 338.096L309.608 342.776C308.504 344.12 307.016 345.32 305.144 346.376C303.32 347.384 301.304 348.2 299.096 348.824C296.888 349.4 294.68 349.688 292.472 349.688ZM319.632 348.968L338.928 298.568H345.336L364.488 348.968H358.368L346.056 316.28C345.72 315.368 345.336 314.312 344.904 313.112C344.52 311.864 344.088 310.592 343.608 309.296C343.176 307.952 342.744 306.656 342.312 305.408C341.928 304.16 341.568 303.056 341.232 302.096H342.672C342.288 303.296 341.88 304.52 341.448 305.768C341.064 306.968 340.656 308.192 340.224 309.44C339.792 310.64 339.36 311.84 338.928 313.04C338.496 314.24 338.064 315.44 337.632 316.64L325.392 348.968H319.632ZM327.84 335.072L329.928 329.6H353.76L356.064 335.072H327.84ZM378.693 348.968V298.568H384.165L403.533 330.032L400.941 329.96L420.525 298.568H425.637V348.968H420.021V325.928C420.021 321.608 420.093 317.72 420.237 314.264C420.381 310.808 420.645 307.376 421.029 303.968L422.037 305.984L403.965 334.352H400.077L382.509 306.344L383.301 303.968C383.685 307.184 383.949 310.496 384.093 313.904C384.237 317.264 384.309 321.272 384.309 325.928V348.968H378.693ZM445.498 348.968V298.568H465.442C468.082 298.568 470.458 299.216 472.57 300.512C474.682 301.808 476.362 303.608 477.61 305.912C478.858 308.168 479.482 310.712 479.482 313.544C479.482 316.52 478.858 319.184 477.61 321.536C476.362 323.84 474.682 325.688 472.57 327.08C470.458 328.424 468.082 329.096 465.442 329.096H451.114V348.968H445.498ZM451.114 323.624H465.73C467.218 323.624 468.538 323.192 469.69 322.328C470.89 321.416 471.85 320.216 472.57 318.728C473.29 317.192 473.65 315.44 473.65 313.472C473.65 311.696 473.29 310.112 472.57 308.72C471.85 307.28 470.89 306.152 469.69 305.336C468.538 304.472 467.218 304.04 465.73 304.04H451.114V323.624ZM492.911 348.968V343.64H501.047V303.896H492.911V298.568H514.799V303.896H506.663V343.64H514.799V348.968H492.911ZM532.279 348.968V298.568H537.391L570.367 342.2L569.359 343.496C569.215 342.728 569.095 341.576 568.999 340.04C568.951 338.504 568.879 336.776 568.783 334.856C568.735 332.888 568.687 330.848 568.639 328.736C568.591 326.624 568.543 324.56 568.495 322.544C568.495 320.528 568.495 318.704 568.495 317.072V298.568H574.111V348.968H568.855L536.023 305.912L536.887 304.4C537.031 306.32 537.151 308.216 537.247 310.088C537.391 311.96 537.487 313.76 537.535 315.488C537.631 317.216 537.703 318.8 537.751 320.24C537.799 321.68 537.823 322.904 537.823 323.912C537.871 324.92 537.895 325.64 537.895 326.072V348.968H532.279ZM616.271 349.688C612.575 349.688 609.143 349.04 605.975 347.744C602.807 346.448 600.023 344.648 597.623 342.344C595.223 340.04 593.351 337.328 592.007 334.208C590.711 331.04 590.063 327.608 590.063 323.912C590.063 320.216 590.711 316.808 592.007 313.688C593.351 310.52 595.175 307.784 597.479 305.48C599.831 303.176 602.567 301.4 605.687 300.152C608.855 298.856 612.239 298.208 615.839 298.208C618.383 298.208 620.879 298.568 623.327 299.288C625.823 300.008 628.079 301.016 630.095 302.312C632.111 303.608 633.743 305.072 634.991 306.704L631.247 310.52C629.903 309.128 628.391 307.928 626.711 306.92C625.031 305.912 623.255 305.12 621.383 304.544C619.559 303.968 617.735 303.68 615.911 303.68C613.079 303.68 610.439 304.184 607.991 305.192C605.591 306.2 603.479 307.616 601.655 309.44C599.831 311.216 598.415 313.352 597.407 315.848C596.399 318.296 595.895 320.984 595.895 323.912C595.895 326.744 596.399 329.408 597.407 331.904C598.463 334.352 599.927 336.512 601.799 338.384C603.719 340.208 605.927 341.624 608.423 342.632C610.919 343.64 613.607 344.144 616.487 344.144C618.743 344.144 620.855 343.808 622.823 343.136C624.839 342.464 626.591 341.528 628.079 340.328C629.567 339.08 630.719 337.64 631.535 336.008C632.351 334.376 632.759 332.624 632.759 330.752V328.232L633.911 329.672H616.199V324.128H638.375C638.423 324.512 638.471 324.968 638.519 325.496C638.567 325.976 638.591 326.48 638.591 327.008C638.639 327.488 638.663 327.944 638.663 328.376C638.663 331.496 638.087 334.376 636.935 337.016C635.783 339.608 634.175 341.864 632.111 343.784C630.095 345.656 627.743 347.12 625.055 348.176C622.367 349.184 619.439 349.688 616.271 349.688Z" fill="black"/>
<path d="M350.398 390V373.2H360.574V375.024H352.27V388.176H360.526V390H350.398ZM351.262 382.272V380.448H359.23V382.272H351.262ZM369.525 390L368.949 388.608L374.613 382.248C374.885 381.944 375.165 381.6 375.453 381.216C375.757 380.832 376.037 380.432 376.293 380.016C376.565 379.584 376.781 379.16 376.941 378.744C377.101 378.328 377.181 377.92 377.181 377.52C377.181 376.928 377.053 376.432 376.797 376.032C376.541 375.616 376.173 375.296 375.693 375.072C375.229 374.848 374.685 374.736 374.061 374.736C373.517 374.736 372.981 374.864 372.453 375.12C371.925 375.376 371.445 375.768 371.013 376.296C370.581 376.824 370.245 377.496 370.005 378.312L368.517 377.424C368.805 376.448 369.229 375.632 369.789 374.976C370.349 374.304 371.013 373.8 371.781 373.464C372.549 373.128 373.373 372.96 374.253 372.96C375.181 372.96 376.013 373.152 376.749 373.536C377.485 373.904 378.069 374.432 378.501 375.12C378.933 375.792 379.149 376.568 379.149 377.448C379.149 377.832 379.101 378.216 379.005 378.6C378.925 378.984 378.797 379.368 378.621 379.752C378.445 380.136 378.229 380.528 377.973 380.928C377.733 381.328 377.445 381.736 377.109 382.152C376.789 382.568 376.429 383 376.029 383.448L371.205 388.824L370.917 388.2H379.677V390H369.525ZM387.122 390V388.224H389.834V374.976H387.122V373.2H394.418V374.976H391.706V388.224H394.418V390H387.122ZM407.25 390.24C406.066 390.24 405.018 389.976 404.106 389.448C403.21 388.904 402.37 387.984 401.586 386.688L403.122 385.728C403.554 386.416 403.994 386.968 404.442 387.384C404.906 387.784 405.378 388.072 405.858 388.248C406.338 388.424 406.85 388.512 407.394 388.512C408.066 388.512 408.682 388.352 409.242 388.032C409.802 387.696 410.25 387.248 410.586 386.688C410.922 386.112 411.09 385.472 411.09 384.768C411.09 384.048 410.938 383.416 410.634 382.872C410.33 382.328 409.906 381.904 409.362 381.6C408.834 381.296 408.218 381.144 407.514 381.144C407.258 381.144 406.978 381.176 406.674 381.24C406.386 381.288 406.066 381.392 405.714 381.552C405.378 381.696 405.01 381.912 404.61 382.2L404.058 380.712L409.986 374.256L410.394 374.952H402.762V373.2H411.834L412.314 374.16L406.554 380.304L406.074 379.824C406.282 379.696 406.53 379.592 406.818 379.512C407.106 379.416 407.394 379.368 407.682 379.368C408.418 379.368 409.106 379.504 409.746 379.776C410.386 380.048 410.938 380.432 411.402 380.928C411.882 381.408 412.258 381.968 412.53 382.608C412.802 383.248 412.938 383.944 412.938 384.696C412.938 385.736 412.69 386.68 412.194 387.528C411.698 388.36 411.018 389.024 410.154 389.52C409.29 390 408.322 390.24 407.25 390.24Z" fill="black"/>
<path d="M422.578 40.2893C421.279 40.2893 420.164 40.1963 419.27 40.061C420.253 39.9057 421.413 39.7974 422.578 39.7974C423.648 39.7974 424.937 39.8889 426.048 40.0267C426.131 40.037 426.213 40.0475 426.293 40.0583C426.288 40.0589 426.283 40.0595 426.278 40.0602C425.204 40.1974 423.87 40.2893 422.578 40.2893Z" fill="black" stroke="black"/>
<path d="M422.844 43.331C422.844 43.3354 422.843 43.3398 422.842 43.3442C422.689 42.2212 422.581 40.9087 422.581 39.7449C422.581 38.6777 422.672 37.6559 422.808 36.816C422.82 36.7375 422.833 36.6609 422.847 36.5865C422.981 37.3884 423.073 38.4542 423.073 39.7449C423.073 41.0355 422.981 42.2901 422.844 43.331Z" fill="black" stroke="black"/>
<path d="M461.554 9.7054C459.22 9.7054 457.308 9.4883 455.937 9.2046C457.477 8.89454 459.512 8.65405 461.554 8.65405C463.034 8.65405 464.814 8.78051 466.347 8.97077C466.911 9.0407 467.438 9.11882 467.901 9.20167C467.532 9.26817 467.117 9.33127 466.665 9.38891C465.18 9.57855 463.338 9.7054 461.554 9.7054Z" fill="black" stroke="black"/>
<path d="M462.105 13.7248C462.047 14.1649 461.984 14.5736 461.918 14.9453C461.61 13.1892 461.37 10.811 461.37 8.76943C461.37 7.29195 461.496 5.87696 461.684 4.71225C461.758 4.25708 461.84 3.84733 461.925 3.49108C461.989 3.75318 462.051 4.05439 462.108 4.39554C462.295 5.51029 462.422 6.98639 462.422 8.76943C462.422 10.5523 462.295 12.2856 462.105 13.7248Z" fill="black" stroke="black"/>
<path d="M479.332 80.8189C476.998 80.8189 475.087 80.6018 473.715 80.3181C475.255 80.0081 477.29 79.7676 479.332 79.7676C480.813 79.7676 482.592 79.894 484.126 80.0843C484.689 80.1542 485.216 80.2323 485.68 80.3152C485.311 80.3817 484.895 80.4448 484.444 80.5024C482.958 80.6921 481.116 80.8189 479.332 80.8189Z" fill="black" stroke="black"/>
<path d="M479.884 84.8385C479.826 85.2785 479.762 85.6872 479.696 86.0589C479.388 84.3028 479.149 81.9247 479.149 79.8831C479.149 78.4056 479.275 76.9906 479.463 75.8259C479.536 75.3707 479.618 74.961 479.703 74.6047C479.767 74.8668 479.829 75.168 479.886 75.5092C480.073 76.6239 480.2 78.1 480.2 79.8831C480.2 81.666 480.073 83.3992 479.884 84.8385Z" fill="black" stroke="black"/>
<path d="M431.914 95.2082C430.74 95.2082 429.723 95.1288 428.895 95.011C429.802 94.8746 430.856 94.7811 431.914 94.7811C432.936 94.7811 434.168 94.8686 435.229 95.0003C435.251 95.003 435.273 95.0057 435.295 95.0085C434.296 95.1289 433.087 95.2082 431.914 95.2082Z" fill="black" stroke="black"/>
<path d="M432.365 94.7093C432.365 95.8807 432.286 97.021 432.166 97.9848C432.031 96.9496 431.938 95.7655 431.938 94.7093C431.938 93.6896 432.025 92.7134 432.154 91.9112C432.159 91.8804 432.164 91.8499 432.17 91.8198C432.287 92.5695 432.365 93.5432 432.365 94.7093Z" fill="black" stroke="black"/>
<path d="M394.543 75.3487C392.209 75.3487 390.297 75.1316 388.926 74.8479C390.466 74.5378 392.501 74.2974 394.543 74.2974C396.023 74.2974 397.803 74.4238 399.337 74.6141C399.9 74.684 400.427 74.7621 400.891 74.845C400.521 74.9115 400.106 74.9746 399.654 75.0322C398.169 75.2219 396.327 75.3487 394.543 75.3487Z" fill="black" stroke="black"/>
<path d="M395.095 79.3681C395.037 79.8082 394.973 80.2169 394.907 80.5886C394.599 78.8325 394.359 76.4543 394.359 74.4127C394.359 72.9353 394.486 71.5203 394.674 70.3556C394.747 69.9004 394.829 69.4906 394.914 69.1344C394.978 69.3965 395.04 69.6977 395.097 70.0389C395.284 71.1536 395.411 72.6297 395.411 74.4127C395.411 76.1957 395.284 77.9289 395.095 79.3681Z" fill="black" stroke="black"/>
<path d="M346.927 62.792C345.996 62.792 345.175 62.7373 344.48 62.6527C345.234 62.5524 346.079 62.4866 346.927 62.4866C347.763 62.4866 348.754 62.5507 349.649 62.6507C348.816 62.7372 347.859 62.792 346.927 62.792Z" fill="black" stroke="black"/>
<path d="M347.297 62.3782C347.297 63.308 347.243 64.2164 347.156 65.0159C347.057 64.1611 346.992 63.2249 346.992 62.3782C346.992 61.5295 347.058 60.7138 347.159 60.0217C347.243 60.6616 347.297 61.4533 347.297 62.3782Z" fill="black" stroke="black"/>
<path d="M320.695 109.538C318.36 109.538 316.449 109.321 315.077 109.037C316.617 108.727 318.652 108.486 320.695 108.486C322.175 108.486 323.955 108.613 325.488 108.803C326.051 108.873 326.578 108.951 327.042 109.034C326.673 109.101 326.257 109.164 325.806 109.221C324.321 109.411 322.478 109.538 320.695 109.538Z" fill="black" stroke="black"/>
<path d="M321.246 113.557C321.188 113.997 321.125 114.406 321.058 114.778C320.75 113.022 320.511 110.643 320.511 108.602C320.511 107.124 320.637 105.709 320.825 104.545C320.898 104.089 320.98 103.68 321.066 103.323C321.129 103.586 321.191 103.887 321.249 104.228C321.435 105.343 321.562 106.819 321.562 108.602C321.562 110.385 321.435 112.118 321.246 113.557Z" fill="black" stroke="black"/>
<path d="M309.159 73.2081C307.813 73.2081 306.661 73.11 305.744 72.9681C306.754 72.8059 307.954 72.6919 309.159 72.6919C310.247 72.6919 311.557 72.7849 312.686 72.925C312.792 72.9381 312.895 72.9516 312.997 72.9654C312.972 72.9687 312.946 72.972 312.921 72.9752C311.828 73.1147 310.472 73.2081 309.159 73.2081Z" fill="black" stroke="black"/>
<path d="M309.438 76.2925C309.434 76.3169 309.431 76.3412 309.428 76.3654C309.267 75.2106 309.154 73.8504 309.154 72.6468C309.154 71.5618 309.247 70.5228 309.385 69.6688C309.4 69.5728 309.416 69.4796 309.432 69.3896C309.435 69.4048 309.438 69.4201 309.44 69.4355C309.577 70.251 309.67 71.3347 309.67 72.6468C309.67 73.9588 309.577 75.2342 309.438 76.2925Z" fill="black" stroke="black"/>
<path d="M291.976 28.7271C290.324 28.7271 288.935 28.5939 287.869 28.4086C289.052 28.2005 290.511 28.0487 291.976 28.0487C293.182 28.0487 294.635 28.1519 295.886 28.3071C296.136 28.3382 296.377 28.3712 296.606 28.4056C296.459 28.4274 296.305 28.4486 296.146 28.4689C294.935 28.6235 293.431 28.7271 291.976 28.7271Z" fill="black" stroke="black"/>
<path d="M292.337 32.0947C292.316 32.2492 292.295 32.3988 292.273 32.5431C292.067 31.1894 291.916 29.5158 291.916 28.0522C291.916 26.8482 292.019 25.6954 292.172 24.7472C292.206 24.5379 292.242 24.341 292.279 24.1573C292.3 24.2618 292.32 24.3722 292.339 24.4886C292.491 25.3948 292.595 26.5974 292.595 28.0522C292.595 29.5069 292.491 30.921 292.337 32.0947Z" fill="black" stroke="black"/>
<path d="M271.462 71.2459C269.128 71.2459 267.216 71.0288 265.845 70.7451C267.385 70.4351 269.42 70.1946 271.462 70.1946C272.942 70.1946 274.722 70.321 276.255 70.5113C276.819 70.5812 277.346 70.6593 277.81 70.7422C277.44 70.8087 277.025 70.8718 276.573 70.9294C275.088 71.1191 273.246 71.2459 271.462 71.2459Z" fill="black" stroke="black"/>
<path d="M272.013 75.2654C271.955 75.7054 271.892 76.1141 271.826 76.4858C271.518 74.7297 271.278 72.3516 271.278 70.31C271.278 68.8325 271.404 67.4175 271.592 66.2528C271.666 65.7976 271.748 65.3879 271.833 65.0316C271.897 65.2937 271.959 65.5949 272.016 65.9361C272.203 67.0508 272.33 68.5269 272.33 70.31C272.33 72.0929 272.203 73.8261 272.013 75.2654Z" fill="black" stroke="black"/>
</svg>
